<?xml version="1.0" encoding="utf-8"?>
<svg xmlns="http://www.w3.org/2000/svg" style="margin: auto; background: none; display: block; shape-rendering: auto;" width="280" height="43" preserveAspectRatio="xMidYMid">
<style type="text/css">
  text {
    text-anchor: middle; font-size: 34px; opacity: 0;
  }
</style>
<g style="transform-origin:140px 21.5px;transform:scale(1)">
<g transform="translate(140,21.5)">
  <g transform="translate(0,0)"><g class="path" style="transform: scale(0.91); transform-origin: -101.18px 1.69565px; animation: 1s linear -0.612857s infinite normal forwards running breath-c819c90b-96a5-424a-a28b-60a5741388a7;"><path d="M19.75-18.80L19.75-18.80L19.75-18.80Q17.07-19.96 13.92-19.96L13.92-19.96L13.92-19.96Q10.78-19.96 8.82-17.95L8.82-17.95L8.82-17.95Q6.87-15.95 6.87-12.72L6.87-12.72L6.12-12.72L6.12-12.72Q6.12-16.25 8.30-18.48L8.30-18.48L8.30-18.48Q10.47-20.71 13.87-20.71L13.87-20.71L13.87-20.71Q16.59-20.71 19.75-19.65L19.75-19.65L19.75-19.65Q23.39-18.33 27.64-18.33L27.64-18.33L27.64-17.61L27.64-17.61Q25.09-17.61 23.56-17.85L23.56-17.85L23.56-17.85Q23.53-17.71 23.32-16.73L23.32-16.73L23.32-16.73Q22.07-11.15 21.28-7.85L21.28-7.85L30.40-7.85L33.86-22.61L34.58-22.61L29.82-2.18L29.82-2.18Q29.51-0.92 29.51-0.48L29.51-0.48L29.51-0.48Q29.51 0.95 30.84 0.95L30.84 0.95L30.84 0.95Q31.79 0.95 32.50-0.03L32.50-0.03L32.98 0.37L32.98 0.37Q32.74 0.82 32.13 1.21L32.13 1.21L32.13 1.21Q31.52 1.60 30.65 1.60L30.65 1.60L30.65 1.60Q29.78 1.60 29.29 1.02L29.29 1.02L29.29 1.02Q28.80 0.44 28.80-0.37L28.80-0.37L29.21-2.62L30.26-7.24L21.11-7.24L21.11-7.24Q20.74-5.81 20.37-4.15L20.37-4.15L20.37-4.15Q19.99-2.48 19.46-0.88L19.46-0.88L19.46-0.88Q18.94 0.71 18.02 2.41L18.02 2.41L18.02 2.41Q17.10 4.11 15.96 5.19L15.96 5.19L15.96 5.19Q14.82 6.26 13.11 6.95L13.11 6.95L13.11 6.95Q11.39 7.65 9.40 7.65L9.40 7.65L9.40 7.65Q7.41 7.65 5.64 6.90L5.64 6.90L5.64 6.90Q3.88 6.15 2.69 4.83L2.69 4.83L2.69 4.83Q0.65 2.48 0.65-0.85L0.65-0.85L0.65-0.85Q0.65-1.39 0.68-1.94L0.68-1.94L1.43-1.84L1.43-1.84Q1.39-1.36 1.39-0.88L1.39-0.88L1.39-0.88Q1.39 2.28 3.32 4.40L3.32 4.40L3.32 4.40Q5.24 6.53 8.50 6.53L8.50 6.53L8.50 6.53Q11.76 6.53 13.09 4.79L13.09 4.79L13.09 4.79Q14.42 3.06 15.62-1.87L15.62-1.87L15.62-1.87Q16.83-6.80 19.75-18.80" fill="#51cacc" stroke="none" stroke-width="none" transform="translate(-118.79503202438354,9.175651741027831)" style="fill: rgb(81, 202, 204);"></path></g><g class="path" style="transform: scale(0.91); transform-origin: -76.06px 2.71565px; animation: 1s linear -0.565714s infinite normal forwards running breath-c819c90b-96a5-424a-a28b-60a5741388a7;"><path d="M47.40 0.31L47.40 0.31L47.40 0.31Q44.40 0.31 44.13-2.31L44.13-2.31L44.13-2.31Q42.64 0.31 40.36 0.31L40.36 0.31L40.36 0.31Q38.08 0.31 36.74-1.07L36.74-1.07L36.74-1.07Q35.39-2.45 35.39-4.93L35.39-4.93L35.39-4.93Q35.39-8.81 37.30-11.02L37.30-11.02L37.30-11.02Q39.20-13.23 42.23-13.23L42.23-13.23L42.23-13.23Q44.71-13.23 45.53-10.88L45.53-10.88L45.53-10.88Q45.70-11.90 45.90-12.92L45.90-12.92L45.90-12.92Q48.42-12.92 49.64-13.12L49.64-13.12L50.08-13.23L47.74-0.37L47.74-0.37Q48.76-0.48 49.44-1.33L49.44-1.33L49.95-0.92L49.95-0.92Q48.93 0.31 47.40 0.31zM39.24-3.20L39.24-3.20Q39.24-1.67 39.63-1.07L39.63-1.07L39.63-1.07Q40.02-0.48 40.83-0.48L40.83-0.48L40.83-0.48Q41.65-0.48 42.50-1.36L42.50-1.36L42.50-1.36Q43.62-2.52 44.30-4.28L44.30-4.28L44.30-4.28Q44.40-4.73 44.69-6.41L44.69-6.41L44.69-6.41Q44.98-8.09 45.19-9.18L45.19-9.18L45.19-9.18Q45.08-10.47 44.47-11.42L44.47-11.42L44.47-11.42Q43.86-12.38 42.94-12.38L42.94-12.38L42.94-12.38Q41.28-12.38 40.26-9.40L40.26-9.40L40.26-9.40Q39.24-6.43 39.24-3.20L39.24-3.20" fill="#51cacc" stroke="none" stroke-width="none" transform="translate(-118.79503202438354,9.175651741027831)" style="fill: rgb(157, 248, 113);"></path></g><g class="path" style="transform: scale(0.91); transform-origin: -60.01px 4.96065px; animation: 1s linear -0.518571s infinite normal forwards running breath-c819c90b-96a5-424a-a28b-60a5741388a7;"><path d="M58.65 0.27L58.65 0.27L58.65 0.27Q57.09 0.27 56.17-0.44L56.17-0.44L55.15 5.03L51.10 5.03L54.30-12.78L54.30-12.78Q53.28-12.68 52.60-11.83L52.60-11.83L52.09-12.24L52.09-12.24Q53.11-13.46 54.62-13.46L54.62-13.46L54.62-13.46Q56.13-13.46 56.98-12.73L56.98-12.73L56.98-12.73Q57.83-12.00 57.90-10.68L57.90-10.68L57.90-10.68Q59.40-13.23 61.71-13.23L61.71-13.23L61.71-13.23Q64.02-13.23 65.25-11.92L65.25-11.92L65.25-11.92Q66.47-10.61 66.47-8.33L66.47-8.33L66.47-8.33Q66.47-4.32 64.29-2.02L64.29-2.02L64.29-2.02Q62.12 0.27 58.65 0.27zM57.63-8.47L56.41-1.80L56.41-1.80Q56.98-0.51 58.60-0.51L58.60-0.51L58.60-0.51Q60.21-0.51 61.42-3.23L61.42-3.23L61.42-3.23Q62.63-5.95 62.63-9.72L62.63-9.72L62.63-9.72Q62.63-11.29 62.30-11.87L62.30-11.87L62.30-11.87Q61.98-12.44 61.13-12.44L61.13-12.44L61.13-12.44Q60.28-12.44 59.38-11.42L59.38-11.42L59.38-11.42Q58.48-10.40 58.07-9.50L58.07-9.50L58.07-9.50Q57.66-8.60 57.66-8.47L57.66-8.47L57.63-8.47" fill="#51cacc" stroke="none" stroke-width="none" transform="translate(-118.79503202438354,9.175651741027831)" style="fill: rgb(224, 255, 119);"></path></g><g class="path" style="transform: scale(0.91); transform-origin: -43.72px 4.96065px; animation: 1s linear -0.471429s infinite normal forwards running breath-c819c90b-96a5-424a-a28b-60a5741388a7;"><path d="M74.94 0.27L74.94 0.27L74.94 0.27Q73.37 0.27 72.45-0.44L72.45-0.44L71.43 5.03L67.39 5.03L70.58-12.78L70.58-12.78Q69.56-12.68 68.88-11.83L68.88-11.83L68.37-12.24L68.37-12.24Q69.39-13.46 70.91-13.46L70.91-13.46L70.91-13.46Q72.42-13.46 73.27-12.73L73.27-12.73L73.27-12.73Q74.12-12.00 74.19-10.68L74.19-10.68L74.19-10.68Q75.68-13.23 78.00-13.23L78.00-13.23L78.00-13.23Q80.31-13.23 81.53-11.92L81.53-11.92L81.53-11.92Q82.76-10.61 82.76-8.33L82.76-8.33L82.76-8.33Q82.76-4.32 80.58-2.02L80.58-2.02L80.58-2.02Q78.40 0.27 74.94 0.27zM73.92-8.47L72.69-1.80L72.69-1.80Q73.27-0.51 74.88-0.51L74.88-0.51L74.88-0.51Q76.50-0.51 77.71-3.23L77.71-3.23L77.71-3.23Q78.91-5.95 78.91-9.72L78.91-9.72L78.91-9.72Q78.91-11.29 78.59-11.87L78.59-11.87L78.59-11.87Q78.27-12.44 77.42-12.44L77.42-12.44L77.42-12.44Q76.57-12.44 75.67-11.42L75.67-11.42L75.67-11.42Q74.77-10.40 74.36-9.50L74.36-9.50L74.36-9.50Q73.95-8.60 73.95-8.47L73.95-8.47L73.92-8.47" fill="#51cacc" stroke="none" stroke-width="none" transform="translate(-118.79503202438354,9.175651741027831)" style="fill: rgb(222, 157, 214);"></path></g><g class="path" style="transform: scale(0.91); transform-origin: -26.89px 5.69065px; animation: 1s linear -0.424286s infinite normal forwards running breath-c819c90b-96a5-424a-a28b-60a5741388a7;"><path d="M86.53-12.55L86.53-12.55L86.53-12.55Q85.71-12.55 84.83-11.59L84.83-11.59L84.32-12.00L84.32-12.00Q84.56-12.48 85.37-12.85L85.37-12.85L85.37-12.85Q86.19-13.23 87.18-13.23L87.18-13.23L87.18-13.23Q90.27-13.23 90.27-10.44L90.27-10.44L90.27-10.44Q90.27-9.25 89.62-6.55L89.62-6.55L89.62-6.55Q88.98-3.84 88.98-2.89L88.98-2.89L88.98-2.89Q88.98-1.26 90.34-1.26L90.34-1.26L90.34-1.26Q91.46-1.26 92.53-2.79L92.53-2.79L92.53-2.79Q93.60-4.32 94.28-6.90L94.28-6.90L95.40-12.92L95.40-12.92Q97.92-12.92 99.08-13.12L99.08-13.12L99.52-13.23L97.38-1.19L97.38-1.19Q96.76 2.31 94.54 4.28L94.54 4.28L94.54 4.28Q92.31 6.26 88.77 6.26L88.77 6.26L88.77 6.26Q86.63 6.26 85.46 5.53L85.46 5.53L85.46 5.53Q84.29 4.79 84.29 3.62L84.29 3.62L84.29 3.62Q84.29 2.45 85 1.75L85 1.75L85 1.75Q85.71 1.05 87.02 1.05L87.02 1.05L87.02 1.05Q88.33 1.05 89.45 1.48L89.45 1.48L89.45 1.48Q90.58 1.90 91.09 1.97L91.09 1.97L91.02 2.58L91.02 2.58Q90.44 2.52 89.35 2.11L89.35 2.11L89.35 2.11Q88.26 1.70 87.19 1.70L87.19 1.70L87.19 1.70Q86.12 1.70 85.56 2.18L85.56 2.18L85.56 2.18Q85 2.65 85 3.55L85 3.55L85 3.55Q85 4.45 85.99 5.02L85.99 5.02L85.99 5.02Q86.97 5.58 88.43 5.58L88.43 5.58L88.43 5.58Q91.97 5.58 92.79 1.33L92.79 1.33L93.64-3.37L93.64-3.37Q92.21-0.24 89.32-0.24L89.32-0.24L89.32-0.24Q87.35-0.24 86.27-1.36L86.27-1.36L86.27-1.36Q85.20-2.48 85.20-4.52L85.20-4.52L85.20-4.52Q85.20-5.58 85.83-8.31L85.83-8.31L85.83-8.31Q86.46-11.05 86.53-12.55" fill="#51cacc" stroke="none" stroke-width="none" transform="translate(-118.79503202438354,9.175651741027831)" style="fill: rgb(255, 112, 142);"></path></g><g class="path" style="transform: scale(0.91); transform-origin: 4.99997px 1.42065px; animation: 1s linear -0.377143s infinite normal forwards running breath-c819c90b-96a5-424a-a28b-60a5741388a7;"><path d="M108.87-10.54L108.87-10.54L108.87-10.54Q108.87-15.40 113.95-18.05L113.95-18.05L113.95-18.05Q119.03-20.71 128.32-20.71L128.32-20.71L128.32-20.71Q133.59-20.71 136.03-19.11L136.03-19.11L136.03-19.11Q138.48-17.51 138.48-14.76L138.48-14.76L138.48-14.76Q138.48-12.44 136.90-10.61L136.90-10.61L136.90-10.61Q135.32-8.77 132.46-7.89L132.46-7.89L132.46-7.89Q138.72-7.17 138.72-3.50L138.72-3.50L138.72-3.50Q138.72-1.60 137.38-0.32L137.38-0.32L137.38-0.32Q136.03 0.95 133.82 1.50L133.82 1.50L133.82 1.50Q130.08 2.41 126.14 2.41L126.14 2.41L126.14 1.73L126.14 1.73Q126.92 1.80 127.64 1.80L127.64 1.80L127.64 1.80Q131.04 1.80 132.77 0.61L132.77 0.61L132.77 0.61Q134.88-0.85 134.88-3.23L134.88-3.23L134.88-3.23Q134.88-4.59 134.05-5.66L134.05-5.66L134.05-5.66Q133.21-6.73 132.40-7.14L132.40-7.14L131.55-7.55L131.55-7.55Q130.46-7.31 129.10-7.31L129.10-7.31L129.10-7.99L129.10-7.99Q132.36-7.99 135.05-9.86L135.05-9.86L135.05-9.86Q137.73-11.73 137.73-14.76L137.73-14.76L137.73-14.76Q137.73-17.27 135.37-18.65L135.37-18.65L135.37-18.65Q133.01-20.03 128.62-20.06L128.62-20.06L128.62-20.06Q126.75-7.41 125.77-2.65L125.77-2.65L125.77-2.65Q125.09 1.02 122.37 3.11L122.37 3.11L122.37 3.11Q119.65 5.20 116.55 5.20L116.55 5.20L116.55 4.56L116.55 4.56Q117.88 4.45 118.51 4.27L118.51 4.27L118.51 4.27Q119.14 4.08 119.58 3.49L119.58 3.49L119.58 3.49Q120.02 2.89 120.22 2.07L120.22 2.07L120.22 2.07Q120.60 0.41 120.80-1.09L120.80-1.09L124.07-19.89L124.07-19.89Q117.10-19.31 113.30-16.88L113.30-16.88L113.30-16.88Q109.51-14.45 109.51-10.54L109.51-10.54L109.51-10.54Q109.51-8.77 110.74-7.55L110.74-7.55L110.74-7.55Q111.59-6.73 112.98-6.31L112.98-6.31L112.98-6.31Q114.38-5.88 115.28-5.83L115.28-5.83L115.28-5.83Q116.18-5.78 116.25-5.85L116.25-5.85L116.25-5.13L116.25-5.13Q112.23-5.13 110.30-7.04L110.30-7.04L110.30-7.04Q108.87-8.36 108.87-10.54" fill="#51cacc" stroke="none" stroke-width="none" transform="translate(-118.79503202438354,9.175651741027831)" style="fill: rgb(81, 202, 204);"></path></g><g class="path" style="transform: scale(0.91); transform-origin: 26.06px 2.71565px; animation: 1s linear -0.33s infinite normal forwards running breath-c819c90b-96a5-424a-a28b-60a5741388a7;"><path d="M147.70-0.92L147.70-0.92Q146.68 0.31 145.15 0.31L145.15 0.31L145.15 0.31Q143.62 0.31 142.75-0.48L142.75-0.48L142.75-0.48Q141.88-1.26 141.88-2.52L141.88-2.52L141.88-2.52Q141.88-2.96 142.43-6.22L142.43-6.22L143.55-12.31L142.12-12.31L142.19-12.92L143.65-12.92L143.65-12.92Q146.17-12.92 147.36-13.12L147.36-13.12L147.83-13.23L145.49-0.37L145.49-0.37Q146.51-0.48 147.19-1.33L147.19-1.33L147.70-0.92" fill="#51cacc" stroke="none" stroke-width="none" transform="translate(-118.79503202438354,9.175651741027831)" style="fill: rgb(157, 248, 113);"></path></g><g class="path" style="transform: scale(0.91); transform-origin: 27.66px -9.06935px; animation: 1s linear -0.282857s infinite normal forwards running breath-c819c90b-96a5-424a-a28b-60a5741388a7;"><path d="M144.70-16.49L144.70-16.49L144.70-16.49Q143.99-17.20 143.99-18.22L143.99-18.22L143.99-18.22Q143.99-19.24 144.70-19.98L144.70-19.98L144.70-19.98Q145.42-20.71 146.44-20.71L146.44-20.71L146.44-20.71Q147.46-20.71 148.19-19.98L148.19-19.98L148.19-19.98Q148.92-19.24 148.92-18.22L148.92-18.22L148.92-18.22Q148.92-17.20 148.19-16.49L148.19-16.49L148.19-16.49Q147.46-15.78 146.44-15.78L146.44-15.78L146.44-15.78Q145.42-15.78 144.70-16.49" fill="#51cacc" stroke="none" stroke-width="none" transform="translate(-118.79503202438354,9.175651741027831)" style="fill: rgb(224, 255, 119);"></path></g><g class="path" style="transform: scale(0.91); transform-origin: 37.23px 2.56065px; animation: 1s linear -0.235714s infinite normal forwards running breath-c819c90b-96a5-424a-a28b-60a5741388a7;"><path d="M150.35-11.59L149.84-12.00L149.84-12.00Q150.86-13.23 152.41-13.23L152.41-13.23L152.41-13.23Q153.95-13.23 154.80-12.44L154.80-12.44L154.80-12.44Q155.65-11.66 155.65-10.23L155.65-10.23L155.65-10.03L155.65-10.03Q157.18-13.23 159.63-13.23L159.63-13.23L159.63-13.23Q162.25-13.23 162.25-10.51L162.25-10.51L162.25-10.51Q162.25-9.38 161.50-8.13L161.50-8.13L161.50-8.13Q160.75-6.87 160.00-5.73L160.00-5.73L160.00-5.73Q159.26-4.59 159.26-3.71L159.26-3.71L158.44-3.71L158.44-3.71Q158.44-4.96 159.90-7.11L159.90-7.11L159.90-7.11Q161.36-9.25 161.36-10.42L161.36-10.42L161.36-10.42Q161.36-11.59 160.91-12.02L160.91-12.02L160.91-12.02Q160.45-12.44 159.55-12.44L159.55-12.44L159.55-12.44Q158.64-12.44 157.78-11.66L157.78-11.66L157.78-11.66Q156.91-10.88 156.33-9.69L156.33-9.69L156.33-9.69Q155.41-7.92 155.11-6.80L155.11-6.80L155.11-6.77L153.88 0L149.80 0L152.05-12.55L152.05-12.55Q151.03-12.44 150.35-11.59L150.35-11.59" fill="#51cacc" stroke="none" stroke-width="none" transform="translate(-118.79503202438354,9.175651741027831)" style="fill: rgb(222, 157, 214);"></path></g><g class="path" style="transform: scale(0.91); transform-origin: 49.505px 0.200651px; animation: 1s linear -0.188571s infinite normal forwards running breath-c819c90b-96a5-424a-a28b-60a5741388a7;"><path d="M163.34-12.92L165.07-12.92L165.99-17.95L165.99-17.95Q168.50-17.95 169.73-18.16L169.73-18.16L170.17-18.26L170.17-18.26Q169.69-15.88 169.12-12.92L169.12-12.92L173.33-12.92L173.26-12.31L169.01-12.31L169.01-12.31Q167.31-3.54 167.31-1.73L167.31-1.73L167.31-1.73Q167.31-0.65 168.47-0.65L168.47-0.65L168.47-0.65Q169.63-0.65 170.58-2.11L170.58-2.11L170.58-2.11Q171.53-3.57 171.94-5.27L171.94-5.27L172.55-5.07L172.55-5.07Q171.29 0.31 167.35 0.31L167.35 0.31L167.35 0.31Q165.72 0.31 164.63-0.60L164.63-0.60L164.63-0.60Q163.54-1.50 163.54-3.11L163.54-3.11L163.54-3.11Q163.54-4.73 164.93-12.31L164.93-12.31L163.27-12.31L163.34-12.92" fill="#51cacc" stroke="none" stroke-width="none" transform="translate(-118.79503202438354,9.175651741027831)" style="fill: rgb(255, 112, 142);"></path></g><g class="path" style="transform: scale(0.91); transform-origin: 62.425px -1.68435px; animation: 1s linear -0.141429s infinite normal forwards running breath-c819c90b-96a5-424a-a28b-60a5741388a7;"><path d="M186.66-0.37L186.66-0.37L186.66-0.37Q187.48-0.37 188.36-1.33L188.36-1.33L188.87-0.92L188.87-0.92Q188.63-0.44 187.82-0.07L187.82-0.07L187.82-0.07Q187.00 0.31 186.01 0.31L186.01 0.31L186.01 0.31Q182.92 0.31 182.92-2.48L182.92-2.48L182.92-2.48Q182.92-3.67 183.53-6.73L183.53-6.73L183.53-6.73Q184.14-9.79 184.14-10.74L184.14-10.74L184.14-10.74Q184.14-12.21 182.75-12.21L182.75-12.21L182.75-12.21Q181.59-12.21 180.52-10.64L180.52-10.64L180.52-10.64Q179.45-9.08 178.77-6.39L178.77-6.39L177.65 0L173.57 0L177.34-21.35L177.34-21.35Q176.32-21.25 175.64-20.40L175.64-20.40L175.13-20.81L175.13-20.81Q176.15-22.03 177.70-22.03L177.70-22.03L177.70-22.03Q179.25-22.03 180.10-21.25L180.10-21.25L180.10-21.25Q180.95-20.47 180.95-19.04L180.95-19.04L180.95-19.04Q180.95-18.77 180.88-18.16L180.88-18.16L179.45-10.10L179.45-10.10Q180.85-13.23 183.77-13.23L183.77-13.23L183.77-13.23Q185.78-13.23 186.90-12.09L186.90-12.09L186.90-12.09Q188.02-10.95 188.02-8.94L188.02-8.94L188.02-8.94Q188.02-7.89 187.37-4.88L187.37-4.88L187.37-4.88Q186.73-1.87 186.66-0.37" fill="#51cacc" stroke="none" stroke-width="none" transform="translate(-118.79503202438354,9.175651741027831)" style="fill: rgb(81, 202, 204);"></path></g><g class="path" style="transform: scale(0.91); transform-origin: 79.37px -1.68435px; animation: 1s linear -0.0942857s infinite normal forwards running breath-c819c90b-96a5-424a-a28b-60a5741388a7;"><path d="M202.27 0.31L202.27 0.31L202.27 0.31Q199.27 0.31 199.00-2.24L199.00-2.24L199.00-2.24Q197.51 0.31 195.19 0.31L195.19 0.31L195.19 0.31Q192.88 0.31 191.66-1.00L191.66-1.00L191.66-1.00Q190.43-2.31 190.43-4.59L190.43-4.59L190.43-4.59Q190.43-8.60 192.34-10.91L192.34-10.91L192.34-10.91Q194.24-13.23 197.27-13.23L197.27-13.23L197.27-13.23Q199.00-13.23 199.95-12.17L199.95-12.17L199.95-12.17Q200.36-11.63 200.46-11.36L200.46-11.36L202.30-21.35L202.30-21.35Q201.28-21.25 200.60-20.40L200.60-20.40L200.09-20.81L200.09-20.81Q201.11-22.03 202.66-22.03L202.66-22.03L202.66-22.03Q204.20-22.03 205.05-21.25L205.05-21.25L205.05-21.25Q205.90-20.47 205.90-19.04L205.90-19.04L205.90-19.04Q205.90-18.77 205.84-18.16L205.84-18.16L205.84-18.16Q204.17-8.81 202.61-0.37L202.61-0.37L202.61-0.37Q203.63-0.48 204.31-1.33L204.31-1.33L204.82-0.92L204.82-0.92Q203.80 0.31 202.27 0.31zM194.28-3.20L194.28-3.20Q194.28-1.63 194.60-1.05L194.60-1.05L194.60-1.05Q194.92-0.48 195.62-0.48L195.62-0.48L195.62-0.48Q196.32-0.48 196.96-0.95L196.96-0.95L196.96-0.95Q197.61-1.43 198.05-2.18L198.05-2.18L198.05-2.18Q198.87-3.43 199.21-4.32L199.21-4.32L200.19-9.69L200.19-9.69Q200.12-10.78 199.48-11.68L199.48-11.68L199.48-11.68Q198.83-12.58 197.27-12.58L197.27-12.58L197.27-12.58Q196.18-12.58 195.23-9.38L195.23-9.38L195.23-9.38Q194.28-6.19 194.28-3.20L194.28-3.20" fill="#51cacc" stroke="none" stroke-width="none" transform="translate(-118.79503202438354,9.175651741027831)" style="fill: rgb(157, 248, 113);"></path></g><g class="path" style="transform: scale(0.91); transform-origin: 95.235px 2.71565px; animation: 1s linear -0.0471429s infinite normal forwards running breath-c819c90b-96a5-424a-a28b-60a5741388a7;"><path d="M218.69 0.31L218.69 0.31L218.69 0.31Q215.70 0.31 215.42-2.31L215.42-2.31L215.42-2.31Q213.93 0.31 211.65 0.31L211.65 0.31L211.65 0.31Q209.37 0.31 208.03-1.07L208.03-1.07L208.03-1.07Q206.69-2.45 206.69-4.93L206.69-4.93L206.69-4.93Q206.69-8.81 208.59-11.02L208.59-11.02L208.59-11.02Q210.49-13.23 213.52-13.23L213.52-13.23L213.52-13.23Q216.00-13.23 216.82-10.88L216.82-10.88L216.82-10.88Q216.99-11.90 217.19-12.92L217.19-12.92L217.19-12.92Q219.71-12.92 220.93-13.12L220.93-13.12L221.37-13.23L219.03-0.37L219.03-0.37Q220.05-0.48 220.73-1.33L220.73-1.33L221.24-0.92L221.24-0.92Q220.22 0.31 218.69 0.31zM210.53-3.20L210.53-3.20Q210.53-1.67 210.92-1.07L210.92-1.07L210.92-1.07Q211.31-0.48 212.13-0.48L212.13-0.48L212.13-0.48Q212.94-0.48 213.79-1.36L213.79-1.36L213.79-1.36Q214.91-2.52 215.59-4.28L215.59-4.28L215.59-4.28Q215.70-4.73 215.99-6.41L215.99-6.41L215.99-6.41Q216.27-8.09 216.48-9.18L216.48-9.18L216.48-9.18Q216.38-10.47 215.76-11.42L215.76-11.42L215.76-11.42Q215.15-12.38 214.23-12.38L214.23-12.38L214.23-12.38Q212.57-12.38 211.55-9.40L211.55-9.40L211.55-9.40Q210.53-6.43 210.53-3.20L210.53-3.20" fill="#51cacc" stroke="none" stroke-width="none" transform="translate(-118.79503202438354,9.175651741027831)" style="fill: rgb(224, 255, 119);"></path></g><g class="path" style="transform: scale(0.91); transform-origin: 111.83px 5.69065px; animation: 1s linear 0s infinite normal forwards running breath-c819c90b-96a5-424a-a28b-60a5741388a7;"><path d="M225.25-12.55L225.25-12.55L225.25-12.55Q224.43-12.55 223.55-11.59L223.55-11.59L223.04-12.00L223.04-12.00Q223.28-12.48 224.09-12.85L224.09-12.85L224.09-12.85Q224.91-13.23 225.90-13.23L225.90-13.23L225.90-13.23Q228.99-13.23 228.99-10.44L228.99-10.44L228.99-10.44Q228.99-9.25 228.34-6.55L228.34-6.55L228.34-6.55Q227.70-3.84 227.70-2.89L227.70-2.89L227.70-2.89Q227.70-1.26 229.06-1.26L229.06-1.26L229.06-1.26Q230.18-1.26 231.25-2.79L231.25-2.79L231.25-2.79Q232.32-4.32 233.00-6.90L233.00-6.90L234.12-12.92L234.12-12.92Q236.64-12.92 237.80-13.12L237.80-13.12L238.24-13.23L236.10-1.19L236.10-1.19Q235.48 2.31 233.26 4.28L233.26 4.28L233.26 4.28Q231.03 6.26 227.49 6.26L227.49 6.26L227.49 6.26Q225.35 6.26 224.18 5.53L224.18 5.53L224.18 5.53Q223.01 4.79 223.01 3.62L223.01 3.62L223.01 3.62Q223.01 2.45 223.72 1.75L223.72 1.75L223.72 1.75Q224.43 1.05 225.74 1.05L225.74 1.05L225.74 1.05Q227.05 1.05 228.17 1.48L228.17 1.48L228.17 1.48Q229.30 1.90 229.81 1.97L229.81 1.97L229.74 2.58L229.74 2.58Q229.16 2.52 228.07 2.11L228.07 2.11L228.07 2.11Q226.98 1.70 225.91 1.70L225.91 1.70L225.91 1.70Q224.84 1.70 224.28 2.18L224.28 2.18L224.28 2.18Q223.72 2.65 223.72 3.55L223.72 3.55L223.72 3.55Q223.72 4.45 224.71 5.02L224.71 5.02L224.71 5.02Q225.69 5.58 227.15 5.58L227.15 5.58L227.15 5.58Q230.69 5.58 231.51 1.33L231.51 1.33L232.36-3.37L232.36-3.37Q230.93-0.24 228.04-0.24L228.04-0.24L228.04-0.24Q226.07-0.24 225.00-1.36L225.00-1.36L225.00-1.36Q223.92-2.48 223.92-4.52L223.92-4.52L223.92-4.52Q223.92-5.58 224.55-8.31L224.55-8.31L224.55-8.31Q225.18-11.05 225.25-12.55" fill="#51cacc" stroke="none" stroke-width="none" transform="translate(-118.79503202438354,9.175651741027831)" style="fill: rgb(222, 157, 214);"></path></g></g>
</g>
</g>
<style id="breath-c819c90b-96a5-424a-a28b-60a5741388a7" data-anikit="">@keyframes breath-c819c90b-96a5-424a-a28b-60a5741388a7
{
  0% {
    animation-timing-function: cubic-bezier(0.9647,0.2413,-0.0705,0.7911);
    transform: scale(0.9099999999999999);
  }
  51% {
    animation-timing-function: cubic-bezier(0.9226,0.2631,-0.0308,0.7628);
    transform: scale(1.02994);
  }
  100% {
    transform: scale(0.9099999999999999);
  }
}</style></svg>